<svg width="31" height="22" viewBox="0 0 31 30" fill="none" xmlns="http://www.w3.org/2000/svg">
<path d="M15.915 0C7.63504 0 0.915039 6.72 0.915039 15C0.915039 23.28 7.63504 30 15.915 30C24.165 30 30.915 23.28 30.915 15C30.915 6.72 24.165 0 15.915 0ZM25.815 6.9C27.615 9.09 28.665 11.85 28.725 14.88C28.305 14.79 24.075 13.95 19.815 14.46C19.725 14.25 19.635 14.01 19.545 13.8C19.275 13.17 19.005 12.54 18.705 11.94C23.385 10.05 25.545 7.26 25.815 6.9ZM15.915 2.22C19.155 2.22 22.155 3.45 24.405 5.43C24.165 5.76 22.245 8.34 17.685 10.05C15.585 6.18 13.245 3.03 12.915 2.55C13.875 2.34 14.865 2.22 15.915 2.22ZM10.455 3.42C10.785 3.87 13.065 7.05 15.195 10.83C9.19504 12.42 3.91504 12.39 3.34504 12.39C4.21504 8.4 6.88504 5.1 10.455 3.42ZM3.10504 15.03C3.10504 14.91 3.10504 14.76 3.10504 14.64C3.64504 14.67 9.88504 14.73 16.275 12.81C16.635 13.53 16.995 14.25 17.325 15C17.175 15.06 16.995 15.09 16.815 15.15C10.215 17.28 6.70504 23.1 6.40504 23.58C4.33504 21.3 3.10504 18.3 3.10504 15.03ZM15.915 27.81C12.945 27.81 10.215 26.79 8.05504 25.11C8.29504 24.63 10.875 19.62 18.105 17.1C18.135 17.07 18.165 17.07 18.195 17.07C19.995 21.75 20.745 25.65 20.925 26.79C19.395 27.45 17.685 27.81 15.915 27.81ZM23.055 25.62C22.935 24.84 22.245 21.09 20.565 16.5C24.585 15.87 28.095 16.92 28.545 17.04C27.975 20.61 25.935 23.7 23.055 25.62Z" fill="#AEA5BC"/>
</svg>
