<svg width="32" height="22" viewBox="0 0 32 30" fill="none" xmlns="http://www.w3.org/2000/svg">
<path fill-rule="evenodd" clip-rule="evenodd" d="M16.2861 0C7.79903 0 0.915039 6.88399 0.915039 15.3711C0.915039 22.1608 5.3472 27.9132 11.3825 29.9878C12.1369 30.0821 12.4198 29.6106 12.4198 29.2334C12.4198 28.8562 12.4198 27.9132 12.4198 26.593C8.17623 27.536 7.23322 24.5183 7.23322 24.5183C6.57311 22.7266 5.5358 22.2551 5.5358 22.2551C4.12128 21.3121 5.6301 21.3121 5.6301 21.3121C7.13892 21.4064 7.98763 22.9152 7.98763 22.9152C9.40215 25.2727 11.5711 24.6126 12.4198 24.2354C12.5141 23.1981 12.9856 22.538 13.3628 22.1608C9.96796 21.7836 6.38451 20.4634 6.38451 14.5224C6.38451 12.825 6.95032 11.5048 7.98763 10.3731C7.89333 10.0902 7.32752 8.48711 8.17623 6.41249C8.17623 6.41249 9.49645 6.03528 12.4198 8.01561C13.6457 7.6384 14.9659 7.5441 16.2861 7.5441C17.6064 7.5441 18.9266 7.7327 20.1525 8.01561C23.0758 6.03528 24.396 6.41249 24.396 6.41249C25.2448 8.48711 24.679 10.0902 24.5847 10.4674C25.5277 11.5048 26.1878 12.9193 26.1878 14.6167C26.1878 20.5577 22.6043 21.7836 19.2095 22.1608C19.7753 22.6323 20.2468 23.5753 20.2468 24.9898C20.2468 27.0645 20.2468 28.6676 20.2468 29.2334C20.2468 29.6106 20.5297 30.0821 21.2841 29.9878C27.4137 27.9132 31.7515 22.1608 31.7515 15.3711C31.6572 6.88399 24.7733 0 16.2861 0Z" fill="#AEA5BC"/>
</svg>
