<svg width="22" height="20" viewBox="0 0 27 20" fill="none" xmlns="http://www.w3.org/2000/svg">
<path d="M26.9147 2.30769C25.9147 2.76923 24.9147 2.92308 23.7481 3.07692C24.9147 2.46154 25.7481 1.53846 26.0814 0.307692C25.0814 0.923077 23.9147 1.23077 22.5814 1.53846C21.5814 0.615385 20.0814 0 18.5814 0C15.0814 0 12.4147 3.07692 13.2481 6.15385C8.74805 6 4.74805 4 1.91471 0.923078C0.414714 3.23077 1.24805 6.15385 3.58138 7.69231C2.74805 7.69231 1.91471 7.38462 1.08138 7.07692C1.08138 9.38462 2.91472 11.5385 5.41472 12.1538C4.58138 12.3077 3.74805 12.4615 2.91472 12.3077C3.58138 14.3077 5.58138 15.8462 8.08138 15.8462C6.08138 17.2308 3.08138 18 0.248047 17.6923C2.74805 19.0769 5.58138 20 8.58138 20C18.7481 20 24.4147 12.1538 24.0814 4.92308C25.2481 4.30769 26.2481 3.38462 26.9147 2.30769Z" fill="#AEA5BC"/>
</svg>
